<svg xmlns="http://www.w3.org/2000/svg" viewBox="0 0 1200 630" width="1200" height="630" font-family="'DejaVu Sans',Verdana,Arial,sans-serif"><rect width="1200" height="630" fill="#f7f9fc"/><text x="60" y="84" font-size="40" font-weight="700" fill="#1b2430">Gemini Gem for Computational Medical Physics</text><text x="60" y="124" font-size="24" fill="#4a5565">Four primary pillars</text><rect x="280" y="150" width="640" height="80" rx="14" fill="#1f5fbf" stroke="#1f5fbf" stroke-width="2"/><text x="600" y="200" font-size="28" font-weight="700" fill="#ffffff" text-anchor="middle">Computational Medical Physicist Gem</text><line x1="600" y1="230" x2="191" y2="300" stroke="#c5cdd9" stroke-width="3"/><rect x="60" y="300" width="262" height="270" rx="14" fill="#fff" stroke="#1f5fbf" stroke-width="3"/><circle cx="191" cy="300" r="26" fill="#1f5fbf"/><text x="191" y="310" font-size="28" font-weight="700" fill="#fff" text-anchor="middle">1</text><text x="191" y="366" font-size="22" font-weight="700" fill="#1f5fbf" text-anchor="middle">Medical Image</text><text x="191" y="396" font-size="22" font-weight="700" fill="#1f5fbf" text-anchor="middle">Processing and</text><text x="191" y="426" font-size="22" font-weight="700" fill="#1f5fbf" text-anchor="middle">Deep Learning</text><line x1="90" y1="460" x2="292" y2="460" stroke="#c5cdd9" stroke-width="2"/><text x="191" y="497" font-size="20" font-weight="400" fill="#1b2430" text-anchor="middle">SimpleITK, Pydicom,</text><text x="191" y="525" font-size="20" font-weight="400" fill="#1b2430" text-anchor="middle">PyTorch</text><line x1="600" y1="230" x2="464" y2="300" stroke="#c5cdd9" stroke-width="3"/><rect x="333" y="300" width="262" height="270" rx="14" fill="#fff" stroke="#0f7a6b" stroke-width="3"/><circle cx="464" cy="300" r="26" fill="#0f7a6b"/><text x="464" y="310" font-size="28" font-weight="700" fill="#fff" text-anchor="middle">2</text><text x="464" y="366" font-size="22" font-weight="700" fill="#0f7a6b" text-anchor="middle">Dosimetry and</text><text x="464" y="396" font-size="22" font-weight="700" fill="#0f7a6b" text-anchor="middle">Quantitative</text><text x="464" y="426" font-size="22" font-weight="700" fill="#0f7a6b" text-anchor="middle">Radiomics</text><line x1="363" y1="460" x2="565" y2="460" stroke="#c5cdd9" stroke-width="2"/><text x="464" y="497" font-size="20" font-weight="400" fill="#1b2430" text-anchor="middle">TCP/NTCP, radiomics</text><text x="464" y="525" font-size="20" font-weight="400" fill="#1b2430" text-anchor="middle">features</text><line x1="600" y1="230" x2="737" y2="300" stroke="#c5cdd9" stroke-width="3"/><rect x="606" y="300" width="262" height="270" rx="14" fill="#fff" stroke="#b3541e" stroke-width="3"/><circle cx="737" cy="300" r="26" fill="#b3541e"/><text x="737" y="310" font-size="28" font-weight="700" fill="#fff" text-anchor="middle">3</text><text x="737" y="366" font-size="22" font-weight="700" fill="#b3541e" text-anchor="middle">Clinical Guidelines</text><text x="737" y="396" font-size="22" font-weight="700" fill="#b3541e" text-anchor="middle">and Protocol QA</text><line x1="636" y1="460" x2="838" y2="460" stroke="#c5cdd9" stroke-width="2"/><text x="737" y="497" font-size="20" font-weight="400" fill="#1b2430" text-anchor="middle">AAPM TG-51, TG-142</text><line x1="600" y1="230" x2="1010" y2="300" stroke="#c5cdd9" stroke-width="3"/><rect x="879" y="300" width="262" height="270" rx="14" fill="#fff" stroke="#6a3fa0" stroke-width="3"/><circle cx="1010" cy="300" r="26" fill="#6a3fa0"/><text x="1010" y="310" font-size="28" font-weight="700" fill="#fff" text-anchor="middle">4</text><text x="1010" y="366" font-size="22" font-weight="700" fill="#6a3fa0" text-anchor="middle">Monte Carlo and</text><text x="1010" y="396" font-size="22" font-weight="700" fill="#6a3fa0" text-anchor="middle">Radiation Transport</text><text x="1010" y="426" font-size="22" font-weight="700" fill="#6a3fa0" text-anchor="middle">Simulations</text><line x1="909" y1="460" x2="1111" y2="460" stroke="#c5cdd9" stroke-width="2"/><text x="1010" y="497" font-size="20" font-weight="400" fill="#1b2430" text-anchor="middle">Geant4, MCNP, EGSnrc</text></svg>